<svg width="91" height="92" viewBox="0 0 91 92" fill="none" xmlns="http://www.w3.org/2000/svg">
<path fill-rule="evenodd" clip-rule="evenodd" d="M41.9136 92.0009C39.4453 91.0598 36.8509 90.3643 34.5307 89.1357C26.1473 84.6997 21.3149 74.4084 22.9282 65.4833C24.8506 54.8549 32.7142 47.3159 43.0335 46.1044C55.1938 44.6782 65.888 52.9702 67.9923 65.7161C69.9062 77.3121 62.3684 88.4299 51.2924 91.2309C50.5298 91.4251 49.795 91.7417 49.0493 92.0009C46.6699 92.0009 44.293 92.0009 41.9136 92.0009ZM45.5153 48.9209C34.5756 48.9063 25.5049 58.1009 25.5607 69.1511C25.6149 79.9848 34.5925 89.0467 45.335 89.1117C56.3213 89.1768 65.3717 80.0883 65.364 68.9962C65.3556 58.0042 56.3898 48.9354 45.5153 48.9209Z" fill="white"/>
<path fill-rule="evenodd" clip-rule="evenodd" d="M0 17.1869C2.02474 14.7229 4.04779 12.259 6.296 9.51953C13.5172 22.0233 20.5945 34.2773 27.6151 46.4328C25.5158 48.7719 23.5376 50.9775 21.4325 53.3259C18.2955 48.0677 15.1754 42.8096 12.0274 37.5694C8.03041 30.9184 4.01139 24.2819 0.000846403 17.6395C-6.13913e-08 17.4881 0 17.3366 0 17.1869Z" fill="white"/>
<path fill-rule="evenodd" clip-rule="evenodd" d="M73.8212 0.242188C72.2993 2.85502 70.9762 5.27449 69.4831 7.58104C69.1284 8.12859 68.2007 8.58801 67.5337 8.59058C52.8331 8.64705 38.1317 8.64705 23.4303 8.59058C22.7642 8.58801 21.8356 8.12944 21.4809 7.58361C19.9869 5.27621 18.6639 2.85673 17.1411 0.242188C36.0892 0.242188 54.802 0.242188 73.8212 0.242188Z" fill="white"/>
<path fill-rule="evenodd" clip-rule="evenodd" d="M13.9847 0.0234375C21.9719 13.8636 29.8119 27.4462 37.7314 41.1657C35.0752 42.3917 32.5705 43.5484 29.8965 44.7838C26.9762 39.7523 24.0483 34.726 21.139 29.6894C17.1378 22.7655 13.1907 15.8091 9.12089 8.92708C8.33368 7.59585 8.34977 6.71721 9.37399 5.59046C10.9205 3.88622 12.3222 2.0468 13.9847 0.0234375Z" fill="white"/>
<path fill-rule="evenodd" clip-rule="evenodd" d="M60.908 44.715C58.4465 43.5797 55.9773 42.4384 53.2339 41.1713C61.09 27.5553 68.9519 13.9291 76.9883 0C78.8073 2.2458 80.5553 4.33162 82.1991 6.50127C82.4641 6.84948 82.4734 7.68706 82.2431 8.08574C75.1684 20.2969 68.0488 32.4816 60.908 44.715Z" fill="white"/>
<path fill-rule="evenodd" clip-rule="evenodd" d="M84.6778 9.49219C86.9209 12.265 88.9271 14.7435 91.0001 17.3059C83.8288 29.3417 76.6897 41.3261 69.5371 53.3319C67.4303 50.9801 65.4529 48.7762 63.352 46.4337C70.3472 34.3149 77.4041 22.0909 84.6778 9.49219Z" fill="white"/>
<path fill-rule="evenodd" clip-rule="evenodd" d="M23.9195 11.7637C38.4312 11.7637 52.5664 11.7637 67.046 11.7637C65.4639 14.4783 64.0622 16.9962 62.5191 19.4234C62.2499 19.846 61.3823 20.0624 60.7898 20.065C50.5569 20.1027 40.3231 20.1078 30.0893 20.053C29.4655 20.0505 28.5835 19.6689 28.2669 19.1718C26.7924 16.861 25.4727 14.4501 23.9195 11.7637Z" fill="white"/>
<path fill-rule="evenodd" clip-rule="evenodd" d="M62.4622 69.1039C62.4546 78.8536 55.0684 86.1959 45.2807 86.178C35.7944 86.1617 28.4961 78.6654 28.4843 68.9276C28.4724 59.2198 35.9078 51.8364 45.6785 51.8535C55.1767 51.8698 62.469 59.3652 62.4622 69.1039ZM43.3364 80.4877C45.2003 80.4877 46.6537 80.4877 48.2213 80.4877C48.2213 72.7724 48.2213 65.1821 48.2213 57.6139C44.9573 57.2178 45.0547 57.3111 43.1789 59.349C42.0921 60.5296 40.7199 61.5195 39.3182 62.3074C36.5926 63.8371 36.5164 63.8217 37.3358 67.3089C39.2818 66.3353 41.1787 65.3882 43.3364 64.3094C43.3364 69.7301 43.3364 75.0011 43.3364 80.4877Z" fill="white"/>
</svg>
