<svg width="66" height="92" viewBox="0 0 66 92" fill="none" xmlns="http://www.w3.org/2000/svg">
<path fill-rule="evenodd" clip-rule="evenodd" d="M35.8883 47.7382C33.8365 62.6168 31.828 77.1802 29.7943 91.9197C29.3822 91.9386 28.8703 91.9858 28.3559 91.9875C24.4179 91.9961 20.4807 92.0021 16.5427 91.9978C12.9387 91.9927 11.2911 90.0829 11.7969 86.5863C13.4402 75.1923 15.0652 63.7949 16.6963 52.3984C16.875 51.1507 16.9834 49.8884 17.2602 48.6622C17.3391 48.3153 17.8987 47.8301 18.2466 47.8232C22.4805 47.7503 26.7161 47.7528 30.9508 47.7382C32.4769 47.7339 34.0013 47.7382 35.8883 47.7382Z" fill="white"/>
<path fill-rule="evenodd" clip-rule="evenodd" d="M34.4987 40.4405C28.7266 40.4405 23.1193 40.4405 17.3715 40.4405C17.0461 37.5004 16.7243 34.6057 16.4024 31.7102C16.2853 31.7008 16.1681 31.6922 16.0519 31.6836C14.7557 35.6499 13.4595 39.6153 12.1121 43.7396C9.07641 43.0501 6.10056 42.3752 2.87744 41.6444C3.45266 39.301 3.9897 37.0307 4.56925 34.7689C6.59248 26.8766 8.65302 18.993 10.6389 11.0904C10.9357 9.91229 11.5065 9.28115 12.6951 9.04587C14.6108 8.66719 16.5091 8.20607 18.4152 7.7793C19.2472 9.46663 20.0792 11.1557 20.9121 12.843C25.2518 21.63 29.5942 30.417 33.933 39.2066C34.1126 39.5689 34.2714 39.9425 34.4987 40.4405Z" fill="white"/>
<path fill-rule="evenodd" clip-rule="evenodd" d="M62.7699 41.6718C60.0864 42.2858 57.344 42.8731 54.6267 43.5524C53.5743 43.816 53.4936 43.1514 53.2793 42.4902C52.1132 38.8983 50.9385 35.3106 49.4116 31.7119C49.0897 34.5807 48.7687 37.4505 48.4355 40.4164C45.7729 40.4164 43.1883 40.4164 40.4424 40.4164C39.383 36.6365 38.2812 32.8153 37.2765 28.9683C37.155 28.5029 37.4891 27.8675 37.7329 27.3695C40.5664 21.6025 43.4251 15.8484 46.2691 10.0874C46.6396 9.33777 46.9641 8.56495 47.3935 7.61523C49.6206 8.19657 51.8738 8.74785 54.0974 9.40303C54.4514 9.50693 54.821 10.035 54.9242 10.4352C57.5912 20.7026 60.2244 30.9794 62.8575 41.2554C62.8801 41.3447 62.8176 41.4563 62.7699 41.6718Z" fill="white"/>
<path fill-rule="evenodd" clip-rule="evenodd" d="M38.4688 91.9903C39.3303 77.1968 40.1814 62.5793 41.0446 47.7694C43.2535 47.7694 45.4078 47.7153 47.5542 47.8235C47.903 47.8415 48.4235 48.5465 48.5094 48.9999C49.1983 52.6571 49.8221 56.3254 50.4277 59.9989C51.8748 68.7558 53.2708 77.5231 54.7526 86.2774C55.3747 89.9389 53.7722 91.9714 50.0182 91.9877C46.2016 92.0041 42.3833 91.9903 38.4688 91.9903Z" fill="white"/>
<path fill-rule="evenodd" clip-rule="evenodd" d="M37.4352 40.4053C37.1958 39.9622 36.9407 39.5286 36.7177 39.0795C31.7394 29.0259 26.7872 18.9595 21.7595 8.92995C21.0576 7.53028 21.0221 6.40882 21.9842 5.15599C22.9151 3.94352 23.6621 2.5928 24.5792 1.37002C24.98 0.834194 25.6047 0.463239 26.1278 0.0175781C26.4515 0.585174 26.9017 1.1167 27.0735 1.72552C28.663 7.33965 30.2047 12.9649 31.7551 18.5894C33.6551 25.4778 35.5517 32.3688 37.4482 39.2598C37.5419 39.6024 37.5948 39.9571 37.6669 40.3057C37.5905 40.3383 37.5124 40.3718 37.4352 40.4053Z" fill="white"/>
<path fill-rule="evenodd" clip-rule="evenodd" d="M36.1356 24.842C35.4459 22.3964 34.855 20.3914 34.3327 18.3683C34.2373 17.9956 34.3692 17.5414 34.4759 17.1464C35.8979 11.9221 37.3181 6.69608 38.7922 1.48468C38.9466 0.942844 39.4351 0.493748 39.7682 0C40.2228 0.392422 40.7738 0.714432 41.1139 1.18757C42.1931 2.68771 43.2733 4.19815 44.1782 5.80218C44.5157 6.40155 44.6788 7.40794 44.4038 7.9867C41.7784 13.4986 39.0438 18.9582 36.1356 24.842Z" fill="white"/>
<path fill-rule="evenodd" clip-rule="evenodd" d="M38.3218 50.1026C38.0642 54.9147 37.8238 59.7285 37.5445 64.5389C37.1714 70.9516 36.7654 77.3618 36.3819 83.7728C36.2492 85.9796 36.1077 88.1882 36.0418 90.3967C36.0002 91.7972 35.1499 92.0248 34.0142 91.9947C32.8143 91.9621 32.4569 91.3138 32.607 90.2233C33.2898 85.2205 33.9483 80.2152 34.6398 75.215C35.6557 67.8689 36.6916 60.5262 37.7232 53.1836C37.869 52.1531 38.0312 51.1253 38.1865 50.0957C38.2316 50.0983 38.2767 50.1 38.3218 50.1026Z" fill="white"/>
<path fill-rule="evenodd" clip-rule="evenodd" d="M1.91338 43.9941C2.39576 44.0577 2.61006 44.0654 2.81481 44.1161C5.4818 44.7575 8.15226 45.3826 10.8054 46.0739C11.2201 46.1821 11.902 46.6621 11.8664 46.8647C11.5567 48.6113 11.1602 50.3485 10.6466 52.0461C10.5754 52.2788 9.6931 52.4523 9.24369 52.3647C6.69817 51.8701 4.16479 51.3085 1.63749 50.7271C0.553859 50.4773 -0.226107 49.9131 0.059332 48.6276C0.342168 47.3516 0.580756 46.0593 0.978982 44.8168C1.10131 44.4304 1.67913 44.1882 1.91338 43.9941Z" fill="white"/>
<path fill-rule="evenodd" clip-rule="evenodd" d="M65.9999 49.2814C65.5088 49.7098 65.01 50.4861 64.355 50.6544C61.6984 51.3319 58.9993 51.8531 56.3019 52.3632C55.3424 52.5453 54.6735 52.097 54.4687 51.0829C54.2622 50.0619 54.0401 49.0418 53.8033 48.0242C53.5681 47.0153 53.982 46.3515 54.945 46.1085C57.501 45.4653 60.0725 44.8771 62.6406 44.2735C64.0027 43.9532 64.9015 44.2795 65.1271 45.8354C65.2772 46.8633 65.6312 47.8594 65.9999 49.2814Z" fill="white"/>
<path fill-rule="evenodd" clip-rule="evenodd" d="M45.5472 43.1641C45.594 43.8536 45.6348 44.453 45.6851 45.2069C37.1202 45.2069 28.715 45.2069 20.1865 45.2069C20.1865 44.5586 20.1865 43.9661 20.1865 43.1641C28.6161 43.1641 36.9649 43.1641 45.5472 43.1641Z" fill="white"/>
</svg>
