<svg width="105" height="92" viewBox="0 0 105 92" fill="none" xmlns="http://www.w3.org/2000/svg">
<path d="M16.8049 22.9103C17.3027 22.9775 17.9533 23.0064 18.6574 23.0064C21.8609 23.0064 24.6078 22.2288 26.4453 20.4934C27.8703 19.1464 28.6438 17.1608 28.6438 14.828C28.6438 12.4858 27.6172 10.5086 26.0872 9.3044C24.4869 8.02456 22.1084 7.39258 18.7661 7.39258C15.4567 7.39258 13.112 7.59982 11.446 7.87894V31.4341H16.8039V22.9103H16.8049ZM16.8049 11.6774C17.2024 11.5588 17.9355 11.4627 19.0408 11.4627C21.7512 11.4627 23.2831 12.7771 23.2831 14.9727C23.2831 17.4073 21.5028 18.8645 18.6208 18.8645C17.8333 18.8645 17.2708 18.8327 16.8039 18.7198V11.6774H16.8049Z" fill="white"/>
<path d="M6.674 38.819H33.4091C36.7954 38.819 39.5432 36.0941 39.5432 32.7288V6.10888C39.5432 2.72771 36.7954 0 33.4091 0H6.674C3.2952 0 0.555786 2.72771 0.555786 6.10888V32.7279C0.555786 36.0941 3.29426 38.819 6.674 38.819ZM5.39804 6.46548C5.39804 5.55251 6.1368 4.82064 7.04807 4.82064H33.05C33.9678 4.82064 34.6916 5.55251 34.6916 6.46548V32.3563C34.6916 33.2665 33.9688 34.018 33.05 34.018H7.04713C6.13587 34.018 5.3971 33.2656 5.3971 32.3563V6.46548H5.39804Z" fill="white"/>
<path d="M25.3512 70.7012C19.4327 70.7012 14.6626 75.4565 14.6626 81.3506C14.6626 87.228 19.4524 91.9992 25.3512 91.9992C31.2519 91.9992 36.0538 87.228 36.0538 81.3506C36.0538 75.4565 31.2528 70.7012 25.3512 70.7012ZM25.3512 84.5656C23.5718 84.5656 22.129 83.1196 22.129 81.3516C22.129 79.5816 23.5718 78.1375 25.3512 78.1375C27.1325 78.1375 28.5856 79.5816 28.5856 81.3516C28.5865 83.1196 27.1325 84.5656 25.3512 84.5656Z" fill="white"/>
<path d="M103.223 72.6178L101.479 58.4444C101.139 55.7354 98.7408 53.7367 95.9854 53.8833L92.1529 54.0952L80.2511 43.4159C79.1092 42.389 77.628 41.8242 76.0783 41.8242H51.9017C46.4875 41.8242 41.2178 43.6726 36.9755 47.0481L23.496 57.8441L5.34476 62.3595C3.03848 62.942 1.38658 65.021 1.38658 67.4219V72.6178C0.615946 72.6178 0 73.2349 0 73.9994V80.8962C0 81.8726 0.795011 82.6689 1.78221 82.6689H12.017C11.9833 82.2292 11.8886 81.8064 11.8886 81.3517C11.8886 73.9481 17.9196 67.9578 25.3504 67.9578C32.7848 67.9578 38.8037 73.9481 38.8037 81.3517C38.8037 81.8064 38.7024 82.2292 38.6621 82.6689H67.0266C66.9769 82.2292 66.8972 81.8064 66.8972 81.3517C66.8972 73.9481 72.9123 67.9578 80.3477 67.9578C87.784 67.9578 93.7982 73.9481 93.7982 81.3517C93.7982 81.8064 93.7166 82.2292 93.6669 82.6689H103.221C104.201 82.6689 105 81.8717 105 80.8962V74.4036C105.02 73.4141 104.217 72.6178 103.223 72.6178ZM67.3369 55.1995L33.6052 56.9032L40.0656 51.7409C43.5794 48.932 47.9322 47.3889 52.4314 47.3889H67.3369V55.1995ZM72.9488 54.9232V47.4047H75.1482C75.8992 47.4047 76.6323 47.6829 77.2023 48.1861L84.0818 54.3528L72.9488 54.9232Z" fill="white"/>
<path d="M80.3645 70.7012C74.4469 70.7012 69.6543 75.4565 69.6543 81.3506C69.6543 87.228 74.4469 91.9992 80.3645 91.9992C86.268 91.9992 91.0427 87.228 91.0427 81.3506C91.0427 75.4565 86.2511 70.7012 80.3645 70.7012ZM80.3645 84.5656C78.5719 84.5656 77.1207 83.1196 77.1207 81.3516C77.1207 79.5816 78.5719 78.1375 80.3645 78.1375C82.127 78.1375 83.5764 79.5816 83.5764 81.3516C83.5764 83.1196 82.127 84.5656 80.3645 84.5656Z" fill="white"/>
</svg>
