<svg width="99" height="92" viewBox="0 0 99 92" fill="none" xmlns="http://www.w3.org/2000/svg">
<path fill-rule="evenodd" clip-rule="evenodd" d="M88.7369 65.8905C86.4076 65.8905 84.3094 65.8905 82.2075 65.8905C72.368 65.8905 62.5176 65.886 52.68 65.8979C51.6552 65.8979 50.612 65.9594 49.5899 66.0448C47.0343 66.2651 44.7655 65.4151 42.8296 63.8785C42.2071 63.3829 41.9331 62.2456 41.8093 61.3543C41.4683 58.8952 41.9816 56.6032 43.8388 54.8005C44.2687 54.3792 44.8178 54.0864 45.5704 53.5531C45.5704 55.4219 45.5328 56.9741 45.5795 58.5226C45.6565 61.0376 47.7859 62.7734 50.2233 62.3612C51.9118 62.0767 53.2685 60.351 53.3198 58.316C53.3712 56.1544 53.4087 53.99 53.3583 51.8412C53.3391 51.0637 53.6095 50.9077 54.3199 50.7617C59.8565 49.6465 65.3373 50.1678 70.7511 51.3987C73.1784 51.955 75.3004 53.2492 76.6039 55.5945C76.7809 55.9212 77.4574 56.1131 77.901 56.1158C82.9335 56.1434 87.9724 56.2434 93.0003 56.1002C96.0537 56.0084 98.2711 58.3886 98.3288 61.1175C98.5277 69.754 98.8 78.3868 98.9989 87.0142C99.0585 89.6688 96.7787 91.9506 94.1864 92.0002C91.7215 92.0406 89.3419 89.7991 89.2649 87.2409C89.0632 80.6788 88.9055 74.114 88.7396 67.5446C88.7259 67.0609 88.7369 66.5753 88.7369 65.8905Z" fill="white"/>
<path fill-rule="evenodd" clip-rule="evenodd" d="M16.6249 26.1165C15.8237 25.1959 15.0794 24.3826 14.38 23.5299C12.587 21.3333 10.4842 20.9542 8.54729 22.5092C6.6333 24.0485 6.44814 26.514 8.20996 28.5921C9.57395 30.1938 11.0479 31.7047 12.488 33.244C12.6979 33.4772 12.9454 33.747 13.2232 33.8232C15.1482 34.34 14.9804 35.6287 14.8127 37.236C14.4918 40.3568 14.1985 43.5217 14.4249 46.6316C14.5908 48.9043 15.7339 51.0889 16.2207 53.3607C17.7982 60.6975 18.3519 68.1104 17.46 75.5959C16.9439 79.8972 16.1382 84.103 14.5588 88.1537C13.8126 90.0538 11.7244 92.3944 9.16879 91.8831C5.98339 91.2535 4.03823 88.4493 5.22898 85.3881C6.87897 81.1382 7.4693 76.7112 7.94688 72.2493C8.42537 67.7938 8.08346 63.3612 7.25296 58.9562C6.96238 57.4151 6.76988 55.8482 6.39864 54.3309C6.2868 53.8619 5.81472 53.2763 5.37381 53.1184C2.36166 52.0536 1.0655 49.623 0.598922 46.7876C-0.380989 40.7754 -0.234323 34.7778 1.60542 28.9051C2.2535 26.8233 2.81999 24.68 3.7614 22.7322C4.82748 20.5201 6.66814 19.0698 9.1532 18.4364C14.3782 17.1046 17.6314 20.7762 16.6249 26.1165Z" fill="white"/>
<path fill-rule="evenodd" clip-rule="evenodd" d="M61.8505 24.7775C62.0806 31.222 56.092 37.0434 49.4041 37.0388C43.1378 37.0342 36.9054 31.6176 37.0108 24.4369C37.1098 17.9024 42.6794 12.193 49.6011 12.2683C56.6365 12.3408 62.1942 18.4081 61.8505 24.7775ZM49.3491 29.3706C52.177 29.4028 54.2532 27.4293 54.2779 24.6673C54.2889 22.0733 52.0165 19.6822 49.5003 19.6482C47.0033 19.6216 44.4752 22.0017 44.5943 24.537C44.7382 27.4228 46.0702 29.3229 49.3491 29.3706Z" fill="white"/>
<path fill-rule="evenodd" clip-rule="evenodd" d="M85.4781 69.2109C85.4781 70.8971 85.4781 72.4557 85.4781 74.0914C64.3674 74.0914 43.3355 74.0914 22.2056 74.0914C22.2056 72.4631 22.2056 70.8742 22.2056 69.2109C43.2879 69.2109 64.3307 69.2109 85.4781 69.2109Z" fill="white"/>
<path fill-rule="evenodd" clip-rule="evenodd" d="M22.1824 57.7928C21.9019 53.9257 26.3175 48.6478 31.371 48.9948C35.9919 49.3151 39.9913 53.285 39.907 58.0361C39.8282 62.6908 35.76 66.6726 31.1199 66.6864C26.5962 66.7057 22.0358 62.7513 22.1824 57.7928Z" fill="white"/>
<path fill-rule="evenodd" clip-rule="evenodd" d="M19.1739 0.00111122C22.9276 -0.0677313 27.6567 3.06506 27.7667 8.58531C27.8666 13.9358 23.9305 17.5009 19.2757 17.6909C14.553 17.8846 10.4079 13.9275 10.3455 9.11402C10.275 3.78286 14.1194 0.252616 19.1739 0.00111122Z" fill="white"/>
<path fill-rule="evenodd" clip-rule="evenodd" d="M31.0769 38.7629C26.7392 38.8143 22.6188 37.879 18.6827 36.0845C14.5641 34.2074 11.2247 31.3518 8.61318 27.6756C7.2501 25.7599 7.61035 24.0444 9.42442 22.9374C10.5052 22.2802 11.6308 22.1654 12.6832 23.0081C13.1681 23.3972 13.6466 23.8314 14.0151 24.3271C18.9577 30.9249 25.8107 32.8268 33.616 32.2311C35.8032 32.0687 38.0371 31.2793 39.2737 34.0036C39.3351 34.1422 39.5862 34.1844 39.7054 34.3138C40.1546 34.8269 41.063 35.6402 40.9557 35.8229C40.4937 36.5811 39.8301 37.4182 39.0463 37.7128C37.7731 38.1938 36.3468 38.3324 34.9708 38.5096C33.6802 38.6665 32.3739 38.6849 31.0769 38.7629Z" fill="white"/>
<path fill-rule="evenodd" clip-rule="evenodd" d="M46.3927 38.416C48.4377 38.416 50.3407 38.416 52.3949 38.416C52.4215 38.7006 52.4738 39.0842 52.4738 39.467C52.4811 45.6179 52.4884 51.7632 52.4719 57.9205C52.4683 59.2101 52.2776 60.4768 51.0255 61.1873C49.0556 62.3117 46.8418 61.191 46.4669 58.9283C46.3926 58.4446 46.3963 57.9526 46.3945 57.4615C46.3908 51.5291 46.3927 45.5977 46.3927 39.6726C46.3927 39.2329 46.3927 38.7924 46.3927 38.416Z" fill="white"/>
<path fill-rule="evenodd" clip-rule="evenodd" d="M49.4077 28.3785C47.4103 28.3593 45.8566 26.7236 45.8465 24.6133C45.8337 22.6288 47.5176 20.9105 49.4829 20.9004C51.395 20.8922 53.1193 22.7023 53.0533 24.6776C52.9983 26.775 51.395 28.3978 49.4077 28.3785Z" fill="white"/>
</svg>
