<svg width="92" height="92" viewBox="0 0 92 92" fill="none" xmlns="http://www.w3.org/2000/svg">
<path fill-rule="evenodd" clip-rule="evenodd" d="M69.5838 0.00203997C71.1805 0.45269 72.8668 0.705543 74.3574 1.38866C77.9647 3.0424 79.8937 6.05218 80.7012 10.0652C80.324 9.80828 80.0874 9.65126 79.8591 9.48609C75.4586 6.34581 69.5859 6.72305 65.9215 10.4078C63.9701 12.3694 63.0789 14.8327 62.7405 17.5183C62.6059 18.5929 62.5651 19.6838 62.563 20.7687C62.5508 29.5472 62.5427 38.3257 62.5773 47.1042C62.5794 47.8689 62.3224 48.1034 61.6495 48.3521C60.1426 48.9109 58.6866 49.6164 57.2123 50.2669C56.933 50.3913 56.6577 50.5259 56.3865 50.6686C54.3637 51.7432 52.351 51.731 50.316 50.6727C49.2067 50.0936 48.0607 49.5858 46.9412 49.0251C43.8315 47.4733 40.734 47.4998 37.6325 49.0475C36.462 49.6307 35.2712 50.1731 34.1048 50.7624C32.2002 51.7229 30.316 51.7025 28.4156 50.7481C27.2247 50.1486 26.0053 49.596 24.8104 49.0026C21.7251 47.4733 18.6501 47.5059 15.5771 49.0373C14.631 49.5083 13.6705 49.9549 12.7305 50.4321C11.0808 51.2742 9.36182 51.7473 7.3553 51.4455C7.3553 51.2029 7.3553 50.9133 7.3553 50.6217C7.3553 38.081 7.33695 25.5403 7.37977 12.9995C7.38589 11.3968 7.55106 9.75526 7.94053 8.20551C9.0641 3.75406 12.0555 1.21737 16.5131 0.340536C17.1391 0.218188 17.7672 0.112153 18.3932 0C35.4628 0.00203914 52.5223 0.00203997 69.5838 0.00203997Z" fill="white"/>
<path fill-rule="evenodd" clip-rule="evenodd" d="M91.9981 13.346C91.5087 14.3799 90.6828 14.7041 89.5613 14.7C82.149 14.6694 74.7367 14.6837 67.3244 14.6837C67.0491 14.6837 66.7739 14.6837 66.2294 14.6837C66.7331 13.0299 67.5956 12.2021 68.5255 11.7636C69.7714 11.1743 71.3109 11.0132 72.7791 11.0132C79.3554 11.0112 81.2334 11.0051 87.8097 11.0051C88.3949 11.0051 88.9842 11.0459 89.5654 10.9969C90.691 10.9052 91.5107 11.313 92.0001 12.3448C91.998 12.6772 91.9981 13.0116 91.9981 13.346Z" fill="white"/>
<path fill-rule="evenodd" clip-rule="evenodd" d="M0 12.3437C0.489394 11.3119 1.30913 10.9245 2.43677 10.9918C3.42984 11.0529 4.43106 11.004 5.47306 11.004C5.47306 12.2336 5.47306 13.3939 5.47306 14.6357C4.13946 14.6357 2.77119 14.756 1.44575 14.5766C0.917614 14.5052 0.479199 13.7752 0 13.347C0 13.0126 0 12.6781 0 12.3437Z" fill="white"/>
<path fill-rule="evenodd" clip-rule="evenodd" d="M66.2393 17.6836C71.1964 17.6836 76.0333 17.6836 80.9578 17.6836C80.9578 18.0201 80.9578 20.9136 80.9578 21.2133C80.9578 43.9845 80.9578 66.7535 80.9578 89.5246C80.9578 91.421 80.3706 92.0001 78.4517 92.0001C59.2756 92.0001 40.1016 92.0001 20.9255 92.0001C18.9618 92.0001 18.399 91.4333 18.399 89.4614C18.399 85.7257 18.399 81.992 18.399 78.2563C18.399 77.9586 18.399 77.6609 18.399 77.2796C18.8068 77.2796 19.1331 77.2796 19.4593 77.2796C34.2023 77.2796 48.9453 77.2796 63.6904 77.2796C65.6663 77.2796 66.2373 76.7168 66.2373 74.7612C66.2373 56.9514 66.2373 39.1435 66.2373 21.3337C66.2393 21.0054 66.2393 18.0771 66.2393 17.6836Z" fill="white"/>
<path fill-rule="evenodd" clip-rule="evenodd" d="M62.5283 62.908C62.5283 66.5988 62.5283 70.047 62.5283 73.6012C62.2041 73.6012 61.9084 73.6012 61.6127 73.6012C44.333 73.6012 27.0533 73.6012 9.77363 73.6012C7.97715 73.6012 7.36133 72.9875 7.35929 71.2012C7.35929 69.5862 7.35929 67.9732 7.35929 66.1706C8.33604 66.1706 9.27608 66.2481 10.2019 66.1543C12.239 65.9483 14.0762 65.0776 15.7911 64.0581C18.7989 62.2656 21.7026 62.1963 24.6655 64.0703C25.2038 64.4108 25.8176 64.6249 26.3845 64.9226C29.7001 66.6661 32.9934 66.5988 36.2968 64.8696C37.4795 64.2497 38.7009 63.7094 39.9101 63.1445C41.5231 62.3921 43.1401 62.3982 44.7511 63.1567C45.9338 63.7134 47.1369 64.2334 48.291 64.8452C51.6821 66.6437 55.0406 66.6335 58.4337 64.8411C59.7286 64.158 61.0805 63.589 62.5283 62.908Z" fill="white"/>
<path fill-rule="evenodd" clip-rule="evenodd" d="M62.5568 51.9489C62.5568 54.2858 62.5608 56.5085 62.5445 58.7311C62.5445 58.88 62.412 59.1125 62.2794 59.1695C60.0384 60.1443 57.779 61.0741 55.5462 62.0672C53.7884 62.8502 52.1265 62.5647 50.4769 61.7735C49.2473 61.1842 48.0136 60.601 46.7901 59.9995C43.7824 58.5272 40.7848 58.5578 37.7852 60.0239C36.6841 60.5623 35.5605 61.0496 34.4839 61.6308C32.3489 62.7788 30.2486 62.7951 28.1095 61.6471C27.0063 61.0578 25.8542 60.5602 24.7307 60.0097C21.6964 58.5191 18.6703 58.5619 15.6483 60.0505C14.6002 60.5664 13.5358 61.0476 12.4958 61.5819C10.9155 62.3914 9.25968 62.7482 7.42445 62.5035C7.42445 60.1218 7.42445 57.7136 7.42445 55.1259C8.34818 55.1259 9.29026 55.2034 10.216 55.1096C12.2246 54.9098 14.0455 54.0595 15.7299 53.044C18.7927 51.2006 21.7433 51.1578 24.7551 53.0725C25.3383 53.4436 26.0051 53.6822 26.625 53.9983C29.8876 55.6561 33.1013 55.4869 36.315 53.825C37.6221 53.148 38.9741 52.5505 40.3219 51.9571C41.6372 51.378 42.983 51.3759 44.2983 51.953C45.6482 52.5464 47.0022 53.1357 48.3052 53.8209C51.6718 55.5868 55.0078 55.6072 58.3745 53.8311C59.4307 53.2744 60.5319 52.7993 61.6187 52.2976C61.89 52.1712 62.1795 52.0876 62.5568 51.9489Z" fill="white"/>
</svg>
