<svg width="87" height="92" viewBox="0 0 87 92" fill="none" xmlns="http://www.w3.org/2000/svg">
<path d="M7.23779 62.0944C7.54851 62.145 7.85839 62.1873 8.1691 62.2221C13.4612 62.8276 18.7102 61.4515 23.0411 58.2995C26.4631 55.8128 29.0084 52.4377 30.4493 48.5557C36.6139 52.6201 38.6149 60.8717 34.8656 67.3408C33.8672 69.0603 34.453 71.2642 36.1697 72.262C36.6122 72.52 37.0861 72.6701 37.5659 72.7257C38.943 72.8833 40.3466 72.2322 41.0865 70.9548C46.5202 61.5818 43.9682 49.7377 35.5475 43.3549C35.5541 43.3135 35.5632 43.2737 35.5674 43.233L37.2626 28.4095C40.1585 31.0141 43.8183 32.6797 47.7125 33.1267C50.2654 33.4204 52.9209 33.1889 55.5251 32.3553C57.1466 31.8377 58.0415 30.1008 57.5244 28.4775C57.0066 26.8534 55.2724 25.9576 53.6492 26.4769C47.0348 28.592 39.9381 24.9258 37.8252 18.3066C37.5634 17.4829 36.9859 16.8484 36.27 16.4892C35.6577 16.0031 34.9252 15.6805 34.1141 15.5876L32.2026 15.3686C31.8214 15.3263 31.4452 15.3396 31.0799 15.3968C21.1519 14.7183 12.3211 21.9961 11.1776 31.9929C10.9837 33.685 12.1984 35.2145 13.8895 35.4094C15.5815 35.6044 17.1094 34.3884 17.3032 32.6954C17.9197 27.3063 21.8637 23.0935 26.8442 21.8791L24.5458 41.9706C24.511 42.28 24.5052 42.5844 24.5201 42.8855C24.4811 43.0215 24.4488 43.1584 24.4256 43.301C23.8382 47.0129 21.8463 50.2711 18.8146 52.4766C15.7828 54.6814 12.0733 55.5747 8.36382 54.9833C6.4026 54.6739 4.55986 56.0119 4.24915 57.9752C3.93678 59.9402 5.27574 61.7825 7.23779 62.0944Z" fill="white"/>
<path d="M34.9399 14.242C38.8684 14.242 42.0531 11.0538 42.0531 7.12101C42.0531 3.18819 38.8684 0 34.9399 0C31.0113 0 27.8266 3.18819 27.8266 7.12101C27.8266 11.0538 31.0113 14.242 34.9399 14.242Z" fill="white"/>
<path d="M76.824 75.5645H6.05269C2.71522 75.5645 0 78.281 0 81.6237C0 84.9632 2.71522 87.6814 6.05269 87.6814H76.824C80.1607 87.6814 82.8776 84.964 82.8776 81.6237C82.8767 78.2818 80.1607 75.5645 76.824 75.5645ZM6.05269 85.7031C3.80479 85.7031 1.97696 83.8733 1.97696 81.6237C1.97696 79.3726 3.80479 77.5419 6.05269 77.5419H8.91788C7.0188 77.9284 5.58787 79.6081 5.58787 81.6237C5.58787 83.6394 7.0188 85.3182 8.91788 85.7031H6.05269ZM10.5767 85.7031C12.4766 85.3182 13.9059 83.6394 13.9059 81.6237C13.9059 79.6081 12.4766 77.9284 10.5767 77.5419H72.2992C70.401 77.9284 68.9692 79.6081 68.9692 81.6237C68.9692 83.6394 70.401 85.3182 72.3009 85.7031H10.5767ZM76.824 85.7031H73.9605C75.8588 85.3182 77.2905 83.6394 77.2905 81.6237C77.2905 79.6081 75.8588 77.9284 73.9605 77.5419H76.824C79.0719 77.5419 80.8989 79.3726 80.8989 81.6237C80.8989 83.8733 79.0719 85.7031 76.824 85.7031Z" fill="white"/>
<path d="M79.8004 88.8945H3.0758C2.21906 88.8945 1.52472 89.5888 1.52472 90.4456C1.52472 91.3033 2.21906 91.9992 3.0758 91.9992H79.7996C80.6555 91.9992 81.3515 91.3033 81.3515 90.4456C81.3523 89.5888 80.6563 88.8945 79.8004 88.8945Z" fill="white"/>
<path d="M67.9619 29.7291L77.9843 43.0239L60.3432 72.748H79.7143L86.9999 44.4746L86.7 44.3295L86.8615 44.2059L75.1481 28.6707L81.9597 22.6504L79.9761 20.4025L73.3393 26.2694L72.7535 25.493L81.978 17.3368L78.9653 13.9219L62.1569 28.781L65.1688 32.1976L67.9619 29.7291Z" fill="white"/>
</svg>
